# This file uses centimeters as units for non-parametric coordinates.

mtllib Fenetre-fancy.mtl
g default
v -0.500000 -0.796651 0.181443
v 0.500000 -0.796651 0.181443
v -0.500000 0.382463 0.181443
v 0.500000 0.382463 0.181443
v -0.500000 0.382463 -0.181443
v 0.500000 0.382463 -0.181443
v -0.500000 -0.796651 -0.181443
v 0.500000 -0.796651 -0.181443
v 0.000000 -0.796651 0.181443
v 0.000000 0.722440 0.181443
v 0.000000 0.722440 -0.181443
v 0.000000 -0.796651 -0.181443
v 0.000000 0.382463 0.181443
v 0.000000 0.412463 0.181443
v 0.000000 0.686162 0.181443
v 0.402525 0.412463 0.181443
v -0.402525 0.412463 0.181443
v 0.500000 0.382463 0.251665
v 0.000000 0.382463 0.251665
v 0.402525 0.412463 0.251665
v 0.000000 0.412463 0.251665
v 0.000000 0.722440 0.251665
v 0.000000 0.686162 0.251665
v -0.500000 0.382463 0.251665
v -0.402525 0.412463 0.251665
v -0.450000 -0.746651 0.181443
v 0.000000 -0.746651 0.181443
v 0.000000 0.332464 0.181443
v -0.450000 0.332464 0.181443
v 0.450000 0.332464 0.181443
v 0.450000 -0.746651 0.181443
v -0.419340 -0.719996 0.114976
v 0.000000 -0.719996 0.114976
v 0.000000 0.305808 0.114976
v -0.419340 0.305808 0.114976
v 0.419341 0.305808 0.114976
v 0.419341 -0.719996 0.114976
v -0.500000 -0.181451 0.181443
v -0.500000 -0.232736 0.181443
v -0.500000 -0.232736 -0.181443
v -0.500000 -0.181451 -0.181443
v 0.500000 -0.232736 -0.181443
v 0.500000 -0.181451 -0.181443
v 0.500000 -0.232736 0.181443
v 0.500000 -0.181451 0.181443
v 0.450000 -0.232736 0.181443
v 0.450000 -0.181451 0.181443
v 0.419341 -0.232736 0.114976
v 0.419341 -0.181451 0.114976
v 0.000000 -0.232736 0.114976
v 0.000000 -0.181451 0.114976
v -0.419340 -0.232736 0.114976
v -0.419340 -0.181451 0.114976
v -0.450000 -0.232736 0.181443
v -0.450000 -0.181451 0.181443
v 0.000000 -0.181451 0.159669
v 0.000000 -0.232736 0.159669
vt 0.947479 0.197737
vt 0.947479 0.215543
vt 0.821490 0.215543
vt 0.821490 0.197737
vt 0.947479 0.411326
vt 0.821490 0.411326
vt 0.821490 0.001953
vt 0.947479 0.001953
vt 0.947479 0.621248
vt 0.821490 0.621248
vt 0.971860 0.411326
vt 0.971860 0.621248
vt 0.819551 0.234112
vt 0.819570 0.251918
vt 0.693581 0.252053
vt 0.693562 0.234248
vt 0.819780 0.447702
vt 0.693791 0.447837
vt 0.693352 0.038464
vt 0.819341 0.038329
vt 0.820006 0.657623
vt 0.694016 0.657758
vt 0.669636 0.657785
vt 0.669411 0.447863
vt 0.372828 0.199246
vt 0.352580 0.214082
vt 0.352580 0.001953
vt 0.372828 0.023301
vt 0.331812 0.019337
vt 0.686828 0.214082
vt 0.666581 0.199246
vt 0.666581 0.023301
vt 0.666585 0.248422
vt 0.686828 0.233584
vt 0.686828 0.445728
vt 0.666585 0.424380
vt 0.019316 0.393968
vt 0.352580 0.233584
vt 0.372824 0.248422
vt 0.372824 0.424380
vt 0.023075 0.368623
vt 0.023075 0.195029
vt 0.149065 0.195029
vt 0.149065 0.368623
vt 0.023075 0.021436
vt 0.149065 0.021436
vt 0.175548 0.411339
vt 0.349142 0.411352
vt 0.349140 0.435732
vt 0.175547 0.435720
vt 0.001955 0.411326
vt 0.001953 0.435707
vt 0.973569 0.619451
vt 0.973591 0.479699
vt 0.997971 0.479703
vt 0.997949 0.619455
vt 0.973613 0.339948
vt 0.997993 0.339952
vt 0.519704 0.001953
vt 0.519704 0.023301
vt 0.519704 0.445728
vt 0.519704 0.424380
vt 0.519704 0.248422
vt 0.519704 0.233584
vt 0.519704 0.199246
vt 0.519704 0.214082
vt 0.096978 0.577522
vt 0.001953 0.577522
vt 0.001953 0.437771
vt 0.001953 0.717274
vt 0.149808 0.194981
vt 0.149808 0.021387
vt 0.160223 0.055229
vt 0.160223 0.194981
vt 0.267843 0.194981
vt 0.255248 0.194981
vt 0.149808 0.368575
vt 0.160223 0.334733
vt 0.001985 0.001953
vt 0.175579 0.001966
vt 0.349173 0.001979
vt 0.001971 0.197737
vt 0.349158 0.197763
vt 0.001970 0.215543
vt 0.349157 0.215568
vt 0.973640 0.170951
vt 0.973667 0.001953
vt 0.998047 0.001957
vt 0.998020 0.170955
vt 0.352580 0.445728
vt 0.019329 0.215544
vt 0.331784 0.393992
vt 0.331797 0.215567
vt 0.331799 0.197762
vt 0.686828 0.001953
vt 0.019344 0.019314
vt 0.019330 0.197738
vt 0.175578 0.019325
vt 0.175550 0.393980
vn -0.562283 0.826945 0.000000
vn -0.562283 0.826945 0.000000
vn -0.562283 0.826945 0.000000
vn -0.562283 0.826945 0.000000
vn 0.000000 -1.000000 0.000000
vn 0.000000 -1.000000 0.000000
vn 0.000000 -1.000000 0.000000
vn 0.000000 -1.000000 0.000000
vn 0.562283 0.826945 0.000000
vn 0.562283 0.826945 0.000000
vn 0.562283 0.826945 0.000000
vn 0.562283 0.826945 0.000000
vn 0.000000 -1.000000 0.000000
vn 0.000000 -1.000000 0.000000
vn 0.000000 -1.000000 0.000000
vn 0.000000 -1.000000 0.000000
vn 0.000000 0.000000 1.000000
vn 0.000000 0.000000 1.000000
vn 0.000000 0.000000 1.000000
vn 0.000000 0.000000 1.000000
vn 0.000000 0.000000 1.000000
vn 0.000000 0.000000 1.000000
vn 0.000000 0.000000 1.000000
vn 0.000000 0.000000 1.000000
vn 0.000000 0.000000 1.000000
vn 0.000000 0.000000 1.000000
vn 0.000000 0.000000 1.000000
vn 0.000000 0.000000 1.000000
vn 0.000000 0.000000 1.000000
vn 0.000000 0.000000 1.000000
vn 0.000000 0.000000 1.000000
vn 0.000000 0.000000 1.000000
vn 0.000000 0.000000 1.000000
vn 0.000000 0.000000 1.000000
vn 0.000000 0.000000 1.000000
vn 0.000000 0.000000 1.000000
vn 0.000000 0.000000 1.000000
vn 0.000000 0.000000 1.000000
vn 0.000000 -1.000000 0.000000
vn 0.000000 -1.000000 0.000000
vn 0.000000 -1.000000 0.000000
vn 0.000000 -1.000000 0.000000
vn 0.000000 1.000000 0.000000
vn 0.000000 1.000000 0.000000
vn 0.000000 1.000000 0.000000
vn 0.000000 1.000000 0.000000
vn 0.562283 0.826945 0.000000
vn 0.562283 0.826945 0.000000
vn 0.562283 0.826945 0.000000
vn 0.562283 0.826945 0.000000
vn -0.562283 -0.826945 0.000000
vn -0.562283 -0.826945 0.000000
vn -0.562283 -0.826945 0.000000
vn -0.562283 -0.826945 0.000000
vn 0.000000 -1.000000 0.000000
vn 0.000000 -1.000000 0.000000
vn 0.000000 -1.000000 0.000000
vn 0.000000 -1.000000 0.000000
vn 0.000000 1.000000 0.000000
vn 0.000000 1.000000 0.000000
vn 0.000000 1.000000 0.000000
vn 0.000000 1.000000 0.000000
vn -0.562283 0.826945 0.000000
vn -0.562283 0.826945 0.000000
vn -0.562283 0.826945 0.000000
vn -0.562283 0.826945 0.000000
vn 0.562284 -0.826944 0.000000
vn 0.562284 -0.826944 0.000000
vn 0.562284 -0.826944 0.000000
vn 0.562284 -0.826944 0.000000
vn 0.000000 0.000000 1.000000
vn 0.000000 0.000000 1.000000
vn 0.000000 0.000000 1.000000
vn 0.000000 0.000000 1.000000
vn 0.000000 0.000000 1.000000
vn 0.000000 0.000000 1.000000
vn 0.000000 0.000000 1.000000
vn 0.000000 0.000000 1.000000
vn 0.000000 0.000000 1.000000
vn 0.000000 0.000000 1.000000
vn 0.000000 0.000000 1.000000
vn 0.000000 0.000000 1.000000
vn 0.000000 0.000000 1.000000
vn 0.000000 0.000000 1.000000
vn 0.000000 0.000000 1.000000
vn 0.000000 0.000000 1.000000
vn 0.000000 0.928147 0.372214
vn 0.000000 0.928147 0.372214
vn 0.000000 0.928147 0.372214
vn 0.000000 0.928147 0.372214
vn 0.000000 -0.928146 0.372216
vn 0.000000 -0.928146 0.372216
vn 0.000000 -0.928146 0.372216
vn 0.000000 -0.928146 0.372216
vn 0.000000 -0.928146 0.372216
vn 0.000000 -0.928146 0.372216
vn 0.000000 -0.928146 0.372216
vn 0.000000 -0.928146 0.372216
vn 0.000000 0.928147 0.372214
vn 0.000000 0.928147 0.372214
vn 0.000000 0.928147 0.372214
vn 0.000000 0.928147 0.372214
vn 0.000000 0.000000 1.000000
vn 0.000000 0.000000 1.000000
vn 0.000000 0.000000 1.000000
vn 0.000000 0.000000 1.000000
vn -1.000000 0.000000 0.000000
vn -1.000000 0.000000 0.000000
vn -1.000000 0.000000 0.000000
vn -1.000000 0.000000 0.000000
vn 1.000000 0.000000 0.000000
vn 1.000000 0.000000 0.000000
vn 1.000000 0.000000 0.000000
vn 1.000000 0.000000 0.000000
vn 0.000000 0.000000 1.000000
vn 0.000000 0.000000 1.000000
vn 0.000000 0.000000 1.000000
vn 0.000000 0.000000 1.000000
vn -0.048331 0.000000 0.998831
vn -0.048331 0.000000 0.998831
vn -0.048331 0.000000 0.998831
vn -0.048331 0.000000 0.998831
vn 0.048331 0.000000 0.998831
vn 0.048331 0.000000 0.998831
vn 0.048331 0.000000 0.998831
vn 0.048331 0.000000 0.998831
vn 0.000000 0.000000 1.000000
vn 0.000000 0.000000 1.000000
vn 0.000000 0.000000 1.000000
vn 0.000000 0.000000 1.000000
vn 1.000000 0.000000 0.000000
vn 1.000000 0.000000 0.000000
vn 1.000000 0.000000 0.000000
vn 1.000000 0.000000 0.000000
vn -1.000000 0.000000 0.000000
vn -1.000000 0.000000 0.000000
vn -1.000000 0.000000 0.000000
vn -1.000000 0.000000 0.000000
vn 0.000000 0.000000 1.000000
vn 0.000000 0.000000 1.000000
vn 0.000000 0.000000 1.000000
vn 0.000000 0.000000 1.000000
vn 0.000000 0.000000 1.000000
vn 0.000000 0.000000 1.000000
vn 0.000000 0.000000 1.000000
vn 0.000000 0.000000 1.000000
vn -0.000000 0.000000 1.000000
vn -0.000000 0.000000 1.000000
vn -0.000000 0.000000 1.000000
vn -0.000000 0.000000 1.000000
vn 0.908050 0.000000 0.418861
vn 0.908050 0.000000 0.418861
vn 0.908050 0.000000 0.418861
vn 0.908050 0.000000 0.418861
vn -0.908053 0.000000 0.418856
vn -0.908053 0.000000 0.418856
vn -0.908053 0.000000 0.418856
vn -0.908053 0.000000 0.418856
vn -1.000000 0.000000 0.000000
vn -1.000000 0.000000 0.000000
vn -1.000000 0.000000 0.000000
vn -1.000000 0.000000 0.000000
vn 1.000000 0.000000 0.000000
vn 1.000000 0.000000 0.000000
vn 1.000000 0.000000 0.000000
vn 1.000000 0.000000 0.000000
vn -0.000000 0.000000 1.000000
vn -0.000000 0.000000 1.000000
vn -0.000000 0.000000 1.000000
vn -0.000000 0.000000 1.000000
vn -0.908053 0.000000 0.418856
vn -0.908053 0.000000 0.418856
vn -0.908053 0.000000 0.418856
vn -0.908053 0.000000 0.418856
vn 0.000000 0.000000 1.000000
vn 0.000000 0.000000 1.000000
vn 0.000000 0.000000 1.000000
vn 0.000000 0.000000 1.000000
vn 0.000000 0.000000 1.000000
vn 0.000000 0.000000 1.000000
vn 0.000000 0.000000 1.000000
vn 0.000000 0.000000 1.000000
vn 0.908050 0.000000 0.418861
vn 0.908050 0.000000 0.418861
vn 0.908050 0.000000 0.418861
vn 0.908050 0.000000 0.418861
vn 0.000000 0.000000 1.000000
vn 0.000000 0.000000 1.000000
vn 0.000000 0.000000 1.000000
vn 0.000000 0.000000 1.000000
vn 0.000000 1.000000 0.000000
vn 0.000000 1.000000 0.000000
vn 0.000000 1.000000 0.000000
vn 0.000000 1.000000 0.000000
vn 0.000000 -1.000000 0.000000
vn 0.000000 -1.000000 0.000000
vn 0.000000 -1.000000 0.000000
vn 0.000000 -1.000000 0.000000
vn 0.000000 1.000000 0.000000
vn 0.000000 1.000000 0.000000
vn 0.000000 1.000000 0.000000
vn 0.000000 1.000000 0.000000
vn 0.000000 -1.000000 -0.000000
vn 0.000000 -1.000000 -0.000000
vn 0.000000 -1.000000 -0.000000
vn 0.000000 -1.000000 -0.000000
s off
g pCube3
usemtl initialShadingGroup
f 3/5/1 10/9/2 11/10/3 5/6/4
f 7/41/5 12/42/6 9/43/7 1/44/8
f 11/21/9 10/22/10 4/18/11 6/17/12
f 9/43/13 12/42/14 8/45/15 2/46/16
f 15/67/17 14/68/18 16/69/19
f 17/70/20 14/68/21 15/67/22
f 19/71/23 18/72/24 20/73/25 21/74/26
f 18/72/27 22/75/28 23/76/29 20/73/30
f 24/77/31 19/71/32 21/74/33 25/78/34
f 22/75/35 24/77/36 25/78/37 23/76/38
f 13/47/39 4/48/40 18/49/41 19/50/42
f 16/53/43 14/54/44 21/55/45 20/56/46
f 4/18/47 10/22/48 22/23/49 18/24/50
f 15/86/51 16/87/52 20/88/53 23/89/54
f 3/51/55 13/47/56 19/50/57 24/52/58
f 14/54/59 17/57/60 25/58/61 21/55/62
f 10/9/63 3/5/64 24/11/65 22/12/66
f 17/57/67 15/86/68 23/89/69 25/58/70
f 1/79/71 9/80/72 27/98/73 26/96/74
f 13/47/75 3/51/76 29/37/77 28/99/78
f 4/48/79 13/47/80 28/99/81 30/92/82
f 9/80/83 2/81/84 31/29/85 27/98/86
f 26/27/87 27/59/88 33/60/89 32/28/90
f 28/61/91 29/90/92 35/40/93 34/62/94
f 30/35/95 28/61/96 34/62/97 36/36/98
f 27/59/99 31/95/100 37/32/101 33/60/102
f 38/84/103 39/82/104 54/97/105 55/91/106
f 39/1/107 38/2/108 41/3/109 40/4/110
f 42/13/111 43/14/112 45/15/113 44/16/114
f 44/83/115 45/85/116 47/93/117 46/94/118
f 46/30/119 47/34/120 56/64/121 57/66/122
f 57/66/123 56/64/124 55/38/125 54/26/126
f 32/28/127 33/60/128 50/65/129 52/25/130
f 2/19/131 8/20/132 42/13/133 44/16/134
f 7/7/135 1/8/136 39/1/137 40/4/138
f 48/31/139 50/65/140 33/60/141 37/32/142
f 54/97/143 39/82/144 1/79/145 26/96/146
f 2/81/147 44/83/148 46/94/149 31/29/150
f 52/25/151 54/26/152 26/27/153 32/28/154
f 31/95/155 46/30/156 48/31/157 37/32/158
f 41/3/159 38/2/160 3/5/161 5/6/162
f 45/15/163 43/14/164 6/17/165 4/18/166
f 47/93/167 45/85/168 4/48/169 30/92/170
f 49/33/171 47/34/172 30/35/173 36/36/174
f 36/36/175 34/62/176 51/63/177 49/33/178
f 53/39/179 51/63/180 34/62/181 35/40/182
f 29/90/183 55/38/184 53/39/185 35/40/186
f 3/51/187 38/84/188 55/91/189 29/37/190
f 49/33/191 51/63/192 56/64/193 47/34/194
f 50/65/195 48/31/196 46/30/197 57/66/198
f 51/63/199 53/39/200 55/38/201 56/64/202
f 52/25/203 50/65/204 57/66/205 54/26/206
