# This file uses centimeters as units for non-parametric coordinates.

mtllib Intersection + Trottoir.mtl
g default
v -4.000000 0.069714 8.000000
v 4.000000 0.069714 8.000000
v -4.000000 0.069714 0.000000
v 4.000000 0.069714 0.000000
v 6.572360 -0.056268 0.000000
v 6.572360 -0.053684 8.000000
v -6.572359 -0.053684 8.000000
v -6.572359 -0.053425 0.000000
v 6.572360 0.356121 8.000000
v 6.572360 0.356121 0.000000
v -6.572359 0.356121 0.000000
v -6.572359 0.356121 8.000000
v 4.114552 0.356121 8.000000
v 4.000000 0.241570 8.000000
v 4.114552 0.356121 0.000000
v 4.000000 0.241570 0.000000
v -4.114552 0.356121 8.000000
v -4.000000 0.241570 8.000000
v -4.114552 0.356121 0.000000
v -4.000000 0.241570 0.000000
v 4.485272 0.356121 8.000000
v 4.513910 0.327483 8.000000
v 4.542548 0.356121 8.000000
v 4.485272 0.356121 0.000000
v 4.542548 0.356121 0.000000
v 4.513910 0.327483 0.000000
v -4.485272 0.356121 0.000000
v -4.513910 0.327483 0.000000
v -4.542548 0.356121 0.000000
v -4.485272 0.356121 8.000000
v -4.542548 0.356121 8.000000
v -4.513910 0.327483 8.000000
v 0.000000 0.069714 8.000000
v 0.000000 0.069714 0.000000
v -4.195809 0.069714 -0.984399
v -4.753427 0.069714 -1.818933
v -5.587960 0.069714 -2.376550
v -6.572359 0.069204 -2.572359
v -4.195809 0.241570 -0.984399
v -4.753427 0.241570 -1.818933
v -5.587960 0.241570 -2.376550
v -6.572359 0.241570 -2.572359
v -6.572359 -0.053630 -2.572359
v -4.301641 0.356121 -0.940562
v -4.834427 0.356121 -1.737932
v -5.631797 0.356121 -2.270718
v -6.572359 0.356121 -2.457808
v -4.644143 0.356121 -0.798694
v -5.096566 0.356121 -1.475793
v -5.773665 0.356121 -1.928216
v -6.572359 0.356121 -2.087087
v -6.572359 -0.052909 -2.457808
v -6.572359 -0.052909 -2.087087
v -4.697059 0.356121 -0.776775
v -5.137066 0.356121 -1.435293
v -5.795585 0.356121 -1.875300
v -6.572359 0.356121 -2.029811
v -6.572359 -0.052909 -2.029811
v -4.670600 0.327483 -0.787734
v -5.116817 0.327483 -1.455543
v -5.784625 0.327483 -1.901759
v -6.572359 0.327483 -2.058449
v -6.572359 -0.052910 -2.058449
v 0.000000 0.069714 -2.515133
v -0.000000 0.069714 -4.647360
v 0.000000 0.069714 -6.578102
v -6.572359 0.069714 -6.572359
v -6.572359 -0.055066 -6.572359
v 4.195809 0.069714 -0.984400
v 4.753427 0.069714 -1.818933
v 5.587960 0.069714 -2.376551
v 6.572360 0.063708 -2.572360
v 4.195809 0.241570 -0.984400
v 4.753427 0.241570 -1.818933
v 5.587960 0.241570 -2.376551
v 6.572360 0.241570 -2.572360
v 6.572360 -0.056473 -2.572360
v 4.301641 0.356121 -0.940563
v 4.834427 0.356121 -1.737933
v 5.631797 0.356121 -2.270719
v 6.572360 0.356121 -2.457808
v 4.644143 0.356121 -0.798694
v 5.096566 0.356121 -1.475794
v 5.773666 0.356121 -1.928217
v 6.572360 0.356121 -2.087088
v 6.572360 -0.057175 -2.087088
v 6.572360 -0.057175 -2.457808
v 4.697059 0.356121 -0.776775
v 5.137066 0.356121 -1.435294
v 5.795585 0.356121 -1.875301
v 6.572360 0.356121 -2.029812
v 6.572360 -0.057175 -2.029812
v 4.670600 0.327483 -0.787735
v 5.116817 0.327483 -1.455544
v 5.784626 0.327483 -1.901760
v 6.572360 0.327483 -2.058450
v 6.572360 -0.057175 -2.058450
v 6.572360 0.069714 -6.572360
v 6.572360 -0.055066 -6.572360
vt 0.001953 0.437972
vt 0.256021 0.437972
vt 0.256021 0.946109
vt 0.001953 0.946109
vt 0.546372 0.946000
vt 0.546297 0.437862
vt 0.569844 0.437859
vt 0.569919 0.945996
vt 0.605071 0.437814
vt 0.605147 0.945950
vt 0.581600 0.945953
vt 0.581524 0.437817
vt 0.786661 0.945814
vt 0.786661 0.437622
vt 0.915602 0.437622
vt 0.915602 0.945814
vt 0.782645 0.437770
vt 0.782645 0.945813
vt 0.653741 0.945813
vt 0.653741 0.437770
vt 0.525167 0.946003
vt 0.525091 0.437866
vt 0.536007 0.437864
vt 0.536082 0.946001
vt 0.941683 0.437622
vt 0.941683 0.945814
vt 0.626277 0.437811
vt 0.626353 0.945947
vt 0.615437 0.945948
vt 0.615361 0.437812
vt 0.627668 0.945813
vt 0.627668 0.437770
vt 0.572416 0.437859
vt 0.572492 0.945996
vt 0.574989 0.437858
vt 0.575064 0.945995
vt 0.579027 0.945954
vt 0.578952 0.437818
vt 0.576455 0.945954
vt 0.576380 0.437818
vt 0.510090 0.437972
vt 0.510090 0.946109
vt 0.863426 0.948378
vt 0.863426 0.958950
vt 0.602024 0.963411
vt 0.863426 0.969786
vt 0.863426 0.992851
vt 0.944524 0.160470
vt 0.951236 0.294914
vt 0.950960 0.321038
vt 0.863426 0.995289
vt 0.001953 0.958825
vt 0.001953 0.171462
vt 0.001953 0.435029
vt 0.001953 0.992785
vt 0.001953 0.969989
vt 0.791790 0.136476
vt 0.001953 0.998047
vt 0.792214 0.162695
vt 0.001953 0.995426
vt 0.001953 0.435029
vt 0.061017 0.958825
vt 0.119044 0.958825
vt 0.176861 0.958825
vt 0.245460 0.963833
vt 0.001953 0.171462
vt 0.817169 0.435029
vt 0.817169 0.171462
vt 0.817169 0.171462
vt 0.061017 0.992785
vt 0.119044 0.992785
vt 0.176861 0.992785
vt 0.235881 0.992785
vt 0.061017 0.969989
vt 0.119044 0.969989
vt 0.176861 0.969989
vt 0.235881 0.969989
vt 0.262575 0.969989
vt 0.262575 0.992785
vt 0.061017 0.998047
vt 0.119044 0.998047
vt 0.176861 0.998047
vt 0.235881 0.998047
vt 0.262575 0.998047
vt 0.061017 0.995426
vt 0.119044 0.995426
vt 0.176861 0.995426
vt 0.235881 0.995426
vt 0.262575 0.995426
vt 0.817169 0.435029
vt 0.161487 0.001965
vt 0.409561 0.001965
vt 0.409561 0.167691
vt 0.149343 0.066829
vt 0.409561 0.308188
vt 0.114761 0.121818
vt 0.409561 0.435408
vt 0.063004 0.158560
vt 0.804106 0.958950
vt 0.745894 0.958950
vt 0.687817 0.958950
vt 0.628922 0.958950
vt 0.804106 0.969786
vt 0.745894 0.969786
vt 0.687817 0.969786
vt 0.628922 0.969786
vt 0.804106 0.992851
vt 0.745894 0.992851
vt 0.687817 0.992851
vt 0.628922 0.992851
vt 0.602024 0.992851
vt 0.602024 0.969786
vt 0.804106 0.997683
vt 0.745894 0.997683
vt 0.687817 0.997683
vt 0.628922 0.997683
vt 0.817434 0.321043
vt 0.804106 0.995289
vt 0.745894 0.995289
vt 0.687817 0.995289
vt 0.628922 0.995289
vt 0.602024 0.995289
vt 0.657635 0.001965
vt 0.669779 0.066829
vt 0.628922 0.948378
vt 0.704362 0.121818
vt 0.687817 0.948378
vt 0.745894 0.948378
vt 0.804106 0.948378
vt 0.756118 0.158560
vt 0.235881 0.948673
vt 0.176861 0.948673
vt 0.119044 0.948673
vt 0.061017 0.948673
vt 0.001953 0.948673
vt 0.619428 0.963411
vt 0.235881 0.958825
vt 0.262575 0.963833
vt 0.256248 0.963833
vt 0.608302 0.963411
vt 0.819088 0.295108
vt 0.602024 0.997683
vt 0.830911 0.247245
vt 0.857970 0.206170
vt 0.897225 0.176287
vt 0.863426 0.997683
vt 0.923926 0.137189
vt 0.925600 0.162660
vt 0.912202 0.089277
vt 0.885547 0.048028
vt 0.846551 0.017884
vt 0.799408 0.001953
vn 0.000000 1.000000 0.000000
vn 0.000000 1.000000 0.000000
vn 0.000000 1.000000 -0.000000
vn 0.000000 1.000000 -0.000000
vn 0.000000 1.000000 0.000000
vn 0.000000 1.000000 0.000000
vn 0.000000 1.000000 0.000000
vn 0.000000 1.000000 0.000000
vn -0.000000 1.000000 0.000000
vn -0.000000 1.000000 0.000000
vn -0.000000 1.000000 0.000000
vn -0.000000 1.000000 0.000000
vn 0.000000 1.000000 0.000000
vn 0.000000 1.000000 0.000000
vn 0.000000 1.000000 0.000000
vn 0.000000 1.000000 0.000000
vn 0.000000 1.000000 0.000000
vn 0.000000 1.000000 0.000000
vn 0.000000 1.000000 0.000000
vn 0.000000 1.000000 0.000000
vn -0.999763 0.000000 -0.021789
vn -1.000000 0.000000 0.000000
vn -1.000000 0.000000 0.000000
vn -0.999763 0.000000 -0.021789
vn 1.000000 0.000000 0.000000
vn 1.000000 0.000000 0.000000
vn 1.000000 0.000000 0.000000
vn 1.000000 0.000000 0.000000
vn 1.000000 0.000000 0.000000
vn 0.999763 0.000000 -0.021789
vn 0.999763 0.000000 -0.021789
vn 1.000000 0.000000 0.000000
vn -1.000000 0.000000 0.000000
vn -1.000000 0.000000 0.000000
vn -1.000000 0.000000 0.000000
vn -1.000000 0.000000 0.000000
vn -0.707106 0.707108 0.000000
vn -0.707106 0.707108 0.000000
vn -0.707012 0.707014 -0.016279
vn -0.707038 0.707039 -0.013904
vn 0.707106 0.707108 0.000000
vn 0.707106 0.707108 0.000000
vn 0.707038 0.707039 -0.013904
vn 0.707012 0.707014 -0.016279
vn 0.707106 0.707108 0.000000
vn 0.707106 0.707108 0.000000
vn 0.707040 0.707041 0.013696
vn 0.707058 0.707059 0.011662
vn -0.707106 0.707108 0.000000
vn -0.707106 0.707108 0.000000
vn -0.707042 0.707043 -0.013525
vn -0.707059 0.707061 -0.011514
vn -0.707058 0.707059 0.011662
vn -0.707040 0.707041 0.013696
vn -0.707106 0.707108 0.000000
vn -0.707106 0.707108 0.000000
vn 0.707059 0.707061 -0.011514
vn 0.707041 0.707043 -0.013525
vn 0.707106 0.707108 0.000000
vn 0.707106 0.707108 0.000000
vn 0.000000 1.000000 0.000000
vn 0.000000 1.000000 0.000000
vn 1.000000 0.000000 0.000000
vn 1.000000 0.000000 0.000000
vn 1.000000 0.000000 0.000000
vn 1.000000 0.000000 0.000000
vn 1.000000 0.000000 0.000000
vn 1.000000 0.000000 0.000000
vn 1.000000 0.000000 0.000000
vn 1.000000 0.000000 0.000000
vn 1.000000 0.000000 0.000000
vn 1.000000 0.000000 0.000000
vn 1.000000 0.000000 0.000000
vn 1.000000 0.000000 0.000000
vn 1.000000 0.000000 0.000000
vn 1.000000 0.000000 0.000000
vn 1.000000 0.000000 0.000000
vn 1.000000 0.000000 0.000000
vn 1.000000 0.000000 0.000000
vn 1.000000 0.000000 0.000000
vn 1.000000 0.000000 0.000000
vn -1.000000 0.000000 0.000000
vn -1.000000 0.000000 0.000000
vn -1.000000 0.000000 0.000000
vn -1.000000 0.000000 0.000000
vn -1.000000 0.000000 0.000000
vn -1.000000 0.000000 0.000000
vn -1.000000 0.000000 0.000000
vn -1.000000 0.000000 0.000000
vn -1.000000 0.000000 0.000000
vn -1.000000 0.000000 0.000000
vn -1.000000 0.000000 0.000000
vn -1.000000 0.000000 0.000000
vn -1.000000 0.000000 0.000000
vn -1.000000 0.000000 0.000000
vn -1.000000 0.000000 0.000000
vn -1.000000 0.000000 0.000000
vn -1.000000 0.000000 0.000000
vn -1.000000 0.000000 0.000000
vn -1.000000 0.000000 0.000000
vn -1.000000 0.000000 0.000000
vn -1.000000 0.000000 0.000000
vn -1.000000 0.000000 0.000000
vn -1.000000 0.000000 0.000000
vn -1.000000 0.000000 0.000000
vn 1.000000 0.000000 0.000000
vn 1.000000 0.000000 0.000000
vn 1.000000 0.000000 0.000000
vn 1.000000 0.000000 0.000000
vn 0.923880 0.000000 -0.382684
vn 0.923880 0.000000 -0.382684
vn 0.707107 0.000000 -0.707107
vn 0.707107 0.000000 -0.707107
vn 0.382517 0.000000 -0.923948
vn 0.382547 0.000000 -0.923936
vn 0.195091 0.000000 -0.980785
vn 0.195091 0.000000 -0.980785
vn -0.000000 1.000000 0.000000
vn -0.000000 1.000000 0.000000
vn -0.000000 1.000000 0.000000
vn -0.000000 1.000000 0.000000
vn -0.000000 1.000000 0.000000
vn -0.000000 1.000000 0.000000
vn -0.000000 1.000000 0.000000
vn -0.000000 1.000000 0.000000
vn 0.653281 0.707107 -0.270598
vn 0.653281 0.707107 -0.270598
vn 0.500000 0.707107 -0.500000
vn 0.500000 0.707107 -0.500000
vn 0.270598 0.707107 -0.653281
vn 0.270598 0.707107 -0.653281
vn 0.139281 0.700215 -0.700214
vn 0.139281 0.700215 -0.700214
vn 0.000000 1.000000 0.000000
vn 0.000000 1.000000 0.000000
vn 0.000000 1.000000 0.000000
vn 0.000000 1.000000 0.000000
vn -0.653284 0.707103 0.270601
vn -0.653285 0.707103 0.270598
vn -0.500002 0.707105 0.500001
vn -0.500001 0.707105 0.500002
vn -0.270599 0.707106 0.653282
vn -0.270598 0.707106 0.653282
vn -0.139281 0.700215 0.700215
vn -0.139281 0.700215 0.700215
vn 0.653279 0.707110 -0.270596
vn 0.653278 0.707110 -0.270597
vn 0.499998 0.707108 -0.500000
vn 0.499999 0.707108 -0.499999
vn 0.270598 0.707108 -0.653280
vn 0.270597 0.707108 -0.653280
vn 0.139281 0.700218 -0.700211
vn 0.139281 0.700218 -0.700211
vn 0.000000 1.000000 0.000000
vn 0.000000 1.000000 0.000000
vn 0.000000 1.000000 -0.000000
vn 0.000000 1.000000 -0.000000
vn -0.000039 1.000000 0.000009
vn -0.000054 1.000000 0.000013
vn -0.000068 1.000000 0.000016
vn -0.000068 1.000000 0.000016
vn -0.923880 0.000000 -0.382683
vn -0.923880 0.000000 -0.382683
vn -0.707107 0.000000 -0.707107
vn -0.707107 0.000000 -0.707107
vn -0.381091 0.000000 -0.924538
vn -0.380741 0.000000 -0.924682
vn -0.195090 0.000000 -0.980785
vn -0.195090 0.000000 -0.980785
vn 0.000000 1.000000 0.000000
vn 0.000000 1.000000 0.000000
vn 0.000000 1.000000 0.000000
vn 0.000000 1.000000 0.000000
vn 0.000000 1.000000 0.000000
vn 0.000000 1.000000 0.000000
vn 0.000000 1.000000 0.000000
vn 0.000000 1.000000 0.000000
vn -0.653281 0.707108 -0.270598
vn -0.653281 0.707108 -0.270598
vn -0.499999 0.707108 -0.499999
vn -0.499999 0.707108 -0.499999
vn -0.270597 0.707108 -0.653280
vn -0.270597 0.707108 -0.653280
vn -0.139281 0.700216 -0.700214
vn -0.139281 0.700216 -0.700213
vn 0.000000 1.000000 0.000000
vn 0.000000 1.000000 -0.000000
vn 0.000000 1.000000 -0.000000
vn 0.000000 1.000000 0.000000
vn 0.653285 0.707103 0.270600
vn 0.653285 0.707103 0.270600
vn 0.500003 0.707103 0.500003
vn 0.500003 0.707103 0.500003
vn 0.270599 0.707105 0.653283
vn 0.270599 0.707105 0.653283
vn 0.139282 0.700213 0.700216
vn 0.139282 0.700213 0.700216
vn -0.653278 0.707110 -0.270597
vn -0.653279 0.707110 -0.270596
vn -0.499998 0.707110 -0.499998
vn -0.499998 0.707110 -0.499998
vn -0.270598 0.707108 -0.653281
vn -0.270597 0.707108 -0.653281
vn -0.139281 0.700217 -0.700212
vn -0.139281 0.700217 -0.700212
vn 0.000000 1.000000 -0.000000
vn 0.000000 1.000000 -0.000000
vn 0.000000 1.000000 0.000000
vn 0.000000 1.000000 0.000000
vn 0.000630 1.000000 0.000148
vn 0.000465 1.000000 0.000109
vn 0.000800 1.000000 0.000188
vn 0.000800 1.000000 0.000188
vn -1.000000 0.000000 0.000000
vn 1.000000 0.000000 0.000000
vn 1.000000 0.000000 0.000000
s 1
g polySurface9 pCube10
usemtl initialShadingGroup
f 1/1/1 33/2/2 34/3/3 3/4/4
s 2
f 15/5/5 13/6/6 21/7/7 24/8/8
s 3
f 17/9/9 19/10/10 27/11/11 30/12/12
s 4
f 25/13/13 23/14/14 9/15/15 10/16/16
s 5
f 31/17/17 29/18/18 11/19/19 12/20/20
s 6
f 4/21/21 2/22/22 14/23/23 16/24/24
s off
f 6/25/25 5/26/26 10/16/27 9/15/28
s 7
f 1/27/29 3/28/30 20/29/31 18/30/32
s off
f 8/31/33 7/32/34 12/20/35 11/19/36
s 8
f 14/23/37 13/6/38 15/5/39 16/24/40
s 9
f 17/9/41 18/30/42 20/29/43 19/10/44
s 10
f 21/7/45 22/33/46 26/34/47 24/8/48
s 11
f 22/33/49 23/35/50 25/36/51 26/34/52
s 12
f 27/11/53 28/37/54 32/38/55 30/12/56
s 13
f 28/37/57 29/39/58 31/40/59 32/38/60
s 1
f 34/3/3 33/2/2 2/41/61 4/42/62
s off
f 81/106/63 85/110/64 86/111/65 87/112/66
s 14
f 72/140/67 87/112/68 77/45/69
s off
f 91/141/70 10/49/71 5/50/72 92/117/73
f 85/110/74 96/121/75 97/122/76 86/111/77
f 96/121/78 91/116/79 92/142/80 97/122/81
f 51/73/82 47/77/83 52/78/84 53/79/85
s 15
f 47/77/86 42/65/87 38/139/88 52/78/89
s off
f 11/57/90 57/147/91 58/148/92 8/59/93
f 62/88/94 51/73/95 53/79/96 63/89/97
f 57/83/98 62/88/99 63/89/100 58/84/101
f 38/53/102 67/54/103 68/61/104 43/66/105
f 98/67/106 72/68/107 77/69/108 99/90/109
s 7
f 20/52/31 3/135/30 35/134/110 39/62/111
f 39/62/111 35/134/110 36/133/112 40/63/113
f 40/63/113 36/133/112 37/132/114 41/64/115
f 41/64/115 37/132/114 38/131/116 42/137/117
s 3
f 27/55/11 19/56/10 44/74/118 48/70/119
f 48/70/119 44/74/118 45/75/120 49/71/121
f 49/71/121 45/75/120 46/76/122 50/72/123
f 50/72/123 46/76/122 47/77/124 51/73/125
s 9
f 19/56/44 20/52/43 39/62/126 44/74/127
f 44/74/127 39/62/126 40/63/128 45/75/129
f 45/75/129 40/63/128 41/64/130 46/76/131
f 46/76/131 41/64/130 42/137/132 47/77/133
s 5
f 11/57/19 29/152/18 54/151/134
f 11/57/19 54/151/134 55/150/135
f 11/57/19 55/150/135 56/149/136
f 11/57/19 56/149/136 57/147/137
s 12
f 28/60/54 27/55/53 48/70/138 59/85/139
f 59/85/139 48/70/138 49/71/140 60/86/141
f 60/86/141 49/71/140 50/72/142 61/87/143
f 61/87/143 50/72/142 51/73/144 62/88/145
s 13
f 29/58/58 28/60/57 59/85/146 54/80/147
f 54/80/147 59/85/146 60/86/148 55/81/149
f 55/81/149 60/86/148 61/87/150 56/82/151
f 56/82/151 61/87/150 62/88/152 57/83/153
s 1
f 3/91/4 34/92/3 64/93/154 35/94/155
f 35/94/155 64/93/154 65/95/156 36/96/157
f 36/96/157 65/95/156 66/97/158 37/98/159
f 37/98/159 66/97/158 67/54/160 38/53/161
s 6
f 4/43/21 16/44/24 73/99/162 69/129/163
f 69/129/163 73/99/162 74/100/164 70/128/165
f 70/128/165 74/100/164 75/101/166 71/127/167
f 71/127/167 75/101/166 76/102/168 72/125/169
s 2
f 15/46/5 24/47/8 82/107/170 78/103/171
f 78/103/171 82/107/170 83/108/172 79/104/173
f 79/104/173 83/108/172 84/109/174 80/105/175
f 80/105/175 84/109/174 85/110/176 81/106/177
s 8
f 16/44/40 15/46/39 78/103/178 73/99/179
f 73/99/179 78/103/178 79/104/180 74/100/181
f 74/100/181 79/104/180 80/105/182 75/101/183
f 75/101/183 80/105/182 81/106/184 76/102/185
s 4
f 25/48/13 10/49/16 88/145/186
f 88/145/186 10/49/16 89/144/187
f 89/144/187 10/49/16 90/143/188
f 90/143/188 10/49/16 91/141/189
s 10
f 24/47/48 26/51/47 93/118/190 82/107/191
f 82/107/191 93/118/190 94/119/192 83/108/193
f 83/108/193 94/119/192 95/120/194 84/109/195
f 84/109/195 95/120/194 96/121/196 85/110/197
s 11
f 26/51/52 25/146/51 88/113/198 93/118/199
f 93/118/199 88/113/198 89/114/200 94/119/201
f 94/119/201 89/114/200 90/115/202 95/120/203
f 95/120/203 90/115/202 91/116/204 96/121/205
s 1
f 34/92/3 4/123/62 69/124/206 64/93/207
f 64/93/207 69/124/206 70/126/208 65/95/209
f 65/95/209 70/126/208 71/130/210 66/97/211
f 66/97/211 71/130/210 72/68/212 98/67/213
s 15
f 52/78/89 38/139/88 43/138/214
s 14
f 76/136/215 81/106/216 87/112/68 72/140/67
