# This file uses centimeters as units for non-parametric coordinates.

mtllib Maison.mtl
g default
v -5.000000 -0.013405 3.000000
v 5.000000 -0.013405 3.000000
v -5.000000 5.986595 3.000000
v 5.000000 5.986595 3.000000
v -5.000000 5.986595 -3.000000
v 5.000000 5.986595 -3.000000
v -5.000000 -0.013405 -3.000000
v 5.000000 -0.013405 -3.000000
v -5.000000 8.020086 0.000000
v -5.000000 -0.013405 0.000000
v 5.000000 8.020086 0.000000
v -1.445600 -0.013405 3.000000
v -1.445600 5.986595 3.000000
v 1.445595 -0.013405 3.000000
v 1.445595 5.986595 3.000000
v -5.000000 4.049446 3.000000
v -5.000000 4.049456 0.000000
v -5.000000 4.049446 -3.000000
v 5.000000 4.049446 -3.000000
v 5.000000 4.049456 0.000000
v 5.000000 4.049446 3.000000
v 1.445595 4.049446 3.000000
v -1.445600 4.049446 3.000000
v -1.445600 5.986595 4.141621
v -0.000002 8.020086 4.141591
v 1.445595 5.986595 4.141621
v -1.445600 4.049446 4.141621
v 1.445595 4.049446 4.141621
v -5.161089 5.916835 3.198007
v -1.563433 5.916835 3.198007
v -5.161089 8.203800 -0.046528
v -5.161089 5.916835 -3.291062
v 5.161089 8.203800 -0.046528
v 5.161089 5.916835 -3.291062
v 1.563428 5.916835 3.198007
v 5.161089 5.916835 3.198007
v -1.563433 5.916835 4.432683
v -0.000003 8.203800 4.432650
v 1.563428 5.916835 4.432683
v -5.161089 6.316576 3.198007
v -1.563433 6.316576 3.198007
v -0.000003 8.573133 -0.046528
v -5.161089 8.603542 -0.046528
v -5.161089 6.316576 -3.291062
v 5.161089 8.603542 -0.046528
v 5.161089 6.316576 -3.291062
v 1.563428 6.316576 3.198007
v 5.161089 6.316576 3.198007
v -1.563433 6.316576 4.432683
v -0.000003 8.603542 4.432650
v 1.563428 6.316576 4.432683
v -5.000000 2.466662 3.000000
v -5.000000 2.466667 0.000000
v -5.000000 2.466662 -3.000000
v 5.000000 2.466662 -3.000000
v 5.000000 2.466662 3.000000
v 1.445595 2.466662 3.000000
v -1.445600 2.466662 3.000000
v 5.000000 2.466665 -1.200000
v 5.000000 -0.013405 -1.200000
v 5.000000 2.466665 1.200000
v 5.000000 -0.013405 1.200000
v 6.517280 2.466665 1.200000
v 6.517280 2.466667 0.000000
v 6.517280 2.466665 -1.200000
v 6.313267 2.466665 1.023871
v 6.313267 -0.013405 1.023871
v 6.313267 -0.013405 0.000000
v 6.313267 2.466667 0.000000
v 6.313267 2.466665 -1.023871
v 6.313267 -0.013405 -1.023871
v 5.018684 2.466665 1.023871
v 5.000000 -0.013405 1.012943
v 5.018684 2.466665 -1.023871
v 5.000000 -0.013405 -1.025833
v -0.636603 -0.013405 3.000000
v -0.636603 2.466662 3.000000
v 0.636596 -0.013405 3.000000
v 0.636596 2.466662 3.000000
v 0.535069 -0.013405 2.810895
v 0.535069 2.466662 2.810895
v -0.535075 2.466662 2.810895
v -0.535075 -0.013405 2.810895
vt 0.841522 0.382452
vt 0.934816 0.783836
vt 0.888475 0.783860
vt 0.888417 0.671611
vt 0.842134 0.783884
vt 0.842076 0.671635
vt 0.001953 0.785744
vt 0.862052 0.114384
vt 0.861902 0.002134
vt 0.997684 0.001953
vt 0.997930 0.185841
vt 0.862148 0.186022
vt 0.726120 0.002315
vt 0.726270 0.114565
vt 0.616999 0.789585
vt 0.391562 0.334446
vt 0.726366 0.186203
vt 0.476703 0.706764
vt 0.615193 0.801001
vt 0.461503 0.707868
vt 0.278672 0.339442
vt 0.465774 0.339442
vt 0.398816 0.324995
vt 0.547082 0.504309
vt 0.273663 0.115169
vt 0.988526 0.441307
vt 0.273513 0.002921
vt 0.273758 0.186807
vt 0.906040 0.477052
vt 0.995504 0.437361
vt 0.782694 0.783914
vt 0.614157 0.754478
vt 0.990598 0.852641
vt 0.458013 0.857448
vt 0.473227 0.671643
vt 0.997881 0.839090
vt 0.615960 0.765895
vt 0.002103 0.115532
vt 0.083571 0.115424
vt 0.997870 0.820998
vt 0.278672 0.504309
vt 0.458013 0.671647
vt 0.461503 0.673624
vt 0.462880 0.691621
vt 0.994257 0.783807
vt 0.993351 0.671557
vt 0.160695 0.026239
vt 0.163249 0.857448
vt 0.093154 0.420838
vt 0.862415 0.479730
vt 0.297206 0.857448
vt 0.456720 0.304527
vt 0.162334 0.053017
vt 0.224012 0.420787
vt 0.151730 0.020046
vt 0.856815 0.493169
vt 0.871751 0.503380
vt 0.151722 0.001953
vt 0.278672 0.669177
vt 0.629511 0.328044
vt 0.175507 0.046818
vt 0.451387 0.295025
vt 0.815493 0.504309
vt 0.175506 0.028725
vt 0.263009 0.671647
vt 0.263009 0.785744
vt 0.254121 0.775971
vt 0.254121 0.671647
vt 0.197433 0.785744
vt 0.197433 0.671647
vt 0.206344 0.671647
vt 0.206344 0.775971
vt 0.163249 0.671647
vt 0.297206 0.671647
vt 0.651304 0.303843
vt 0.644444 0.317830
vt 0.906910 0.377820
vt 0.852599 0.377343
vt 0.961221 0.378296
vt 0.163249 0.785744
vt 0.297206 0.785744
vt 0.224046 0.508464
vt 0.158653 0.600526
vt 0.297206 0.945432
vt 0.093189 0.508515
vt 0.041518 0.508535
vt 0.726482 0.273880
vt 0.273875 0.274483
vt 0.002316 0.274844
vt 0.138218 0.366699
vt 0.862388 0.365736
vt 0.001953 0.945216
vt 0.451386 0.276932
vt 0.815493 0.669177
vt 0.628391 0.339442
vt 0.815493 0.339442
vt 0.465774 0.276704
vt 0.547082 0.276705
vt 0.616038 0.783644
vt 0.462787 0.725881
vt 0.628391 0.276704
vt 0.615110 0.818750
vt 0.398816 0.306999
vt 0.288554 0.295027
vt 0.288554 0.276934
vt 0.769675 0.672804
vt 0.768386 0.690816
vt 0.530693 0.839365
vt 0.530683 0.821272
vt 0.769675 0.708773
vt 0.768293 0.726769
vt 0.295846 0.304528
vt 0.754475 0.671695
vt 0.537992 0.852907
vt 0.757951 0.706788
vt 0.764226 0.304356
vt 0.975337 0.479192
vt 0.109024 0.026263
vt 0.110664 0.053022
vt 0.234199 0.334446
vt 0.119625 0.046823
vt 0.119623 0.028731
vt 0.234199 0.324995
vt 0.234199 0.306999
vt 0.769829 0.317793
vt 0.754896 0.328008
vt 0.982200 0.493177
vt 0.997135 0.503389
vt 0.095848 0.020071
vt 0.095840 0.001978
vt 0.184179 0.115293
vt 0.184162 0.003041
vt 0.192045 0.003031
vt 0.192195 0.115279
vt 0.091587 0.115413
vt 0.091887 0.003161
vt 0.083421 0.003176
vt 0.824192 0.439865
vt 0.137978 0.186988
vt 0.001953 0.003285
vt 0.458013 0.785744
vt 0.002199 0.187169
vt 0.458013 0.945432
vt 0.997834 0.114203
vt 0.001953 0.857448
vt 0.998047 0.273518
vt 0.001953 0.671647
vt 0.223991 0.369117
vt 0.041484 0.420858
vt 0.163249 0.945216
vt 0.275716 0.508444
vt 0.275682 0.420767
vt 0.093135 0.369168
vt 0.783482 0.671665
vt 0.953330 0.368992
vt 0.817284 0.435797
vt 0.934758 0.671587
vt 0.906991 0.368586
vt 0.972206 0.383598
vt 0.860652 0.368179
vn 0.000000 0.000000 1.000000
vn 0.000000 0.000000 1.000000
vn 0.000000 0.000000 1.000000
vn 0.000000 0.000000 1.000000
vn 0.002843 0.818837 0.574019
vn 0.002843 0.818837 0.574019
vn 0.002843 0.818837 0.574019
vn 0.002843 0.818837 0.574019
vn 0.000000 0.000000 -1.000000
vn 0.000000 0.000000 -1.000000
vn 0.000000 0.000000 -1.000000
vn 0.000000 0.000000 -1.000000
vn 1.000000 0.000000 0.000000
vn 1.000000 0.000000 0.000000
vn 1.000000 0.000000 0.000000
vn 1.000000 0.000000 0.000000
vn -1.000000 0.000000 0.000000
vn -1.000000 0.000000 0.000000
vn -1.000000 0.000000 0.000000
vn -1.000000 0.000000 0.000000
vn -1.000000 0.000000 0.000000
vn -1.000000 0.000000 0.000000
vn 1.000000 0.000000 0.000000
vn 1.000000 0.000000 0.000000
vn 1.000000 0.000000 0.000000
vn 1.000000 0.000000 0.000000
vn 0.000000 0.819162 -0.573562
vn 0.000000 0.819162 -0.573562
vn 0.000000 0.819162 -0.573562
vn 0.000000 0.819162 -0.573562
vn 0.000000 0.819162 -0.573562
vn 0.000000 0.000000 1.000000
vn 0.000000 0.000000 1.000000
vn 0.000000 0.000015 1.000000
vn 0.000000 0.000015 1.000000
vn 0.000000 0.000015 1.000000
vn 0.000000 0.000000 1.000000
vn 0.000000 0.000000 1.000000
vn 0.000000 0.000000 1.000000
vn 0.000000 0.000000 1.000000
vn -0.002843 0.818837 0.574019
vn -0.002843 0.818837 0.574019
vn -0.002843 0.818837 0.574019
vn -0.002843 0.818837 0.574019
vn -1.000000 0.000000 0.000000
vn -1.000000 0.000000 0.000000
vn -1.000000 0.000000 0.000000
vn -1.000000 0.000000 0.000000
vn -1.000000 0.000000 0.000000
vn -1.000000 0.000000 0.000000
vn 0.000000 0.000000 -1.000000
vn 0.000000 0.000000 -1.000000
vn 0.000000 0.000000 -1.000000
vn 0.000000 0.000000 -1.000000
vn 1.000000 0.000000 0.000000
vn 1.000000 0.000000 0.000000
vn 1.000000 0.000000 0.000000
vn 1.000000 0.000000 0.000000
vn 1.000000 0.000000 0.000000
vn 1.000000 0.000000 0.000000
vn 0.000000 0.000000 1.000000
vn 0.000000 0.000000 1.000000
vn 0.000000 0.000000 1.000000
vn 0.000000 0.000000 1.000000
vn 0.000000 0.000000 1.000000
vn 0.000000 0.000000 1.000000
vn 0.000000 0.000000 1.000000
vn 0.000000 0.000000 1.000000
vn 0.000000 0.000000 1.000000
vn 0.000000 0.000000 1.000000
vn 0.000000 0.000000 1.000000
vn 0.000000 0.000000 1.000000
vn -0.824771 0.565460 -0.003009
vn -0.824771 0.565460 -0.003009
vn -0.824771 0.565460 -0.003009
vn -0.824771 0.565460 -0.003009
vn 0.824771 0.565459 -0.003009
vn 0.824771 0.565459 -0.003009
vn 0.824771 0.565459 -0.003009
vn 0.824771 0.565460 -0.003009
vn -1.000000 0.000000 0.000000
vn -1.000000 0.000000 0.000000
vn -1.000000 0.000000 0.000000
vn -1.000000 0.000000 0.000000
vn 0.000000 -1.000000 0.000000
vn 0.000000 -1.000000 0.000000
vn 0.000000 -1.000000 0.000000
vn 0.000000 -1.000000 0.000000
vn 1.000000 0.000000 0.000000
vn 1.000000 0.000000 0.000000
vn 1.000000 0.000000 0.000000
vn 1.000000 0.000000 0.000000
vn 0.000000 -0.943176 -0.332292
vn 0.000000 -0.943176 -0.332293
vn 0.000000 -0.943176 -0.332292
vn 0.000000 -0.943176 -0.332293
vn -0.487527 -0.718007 -0.496772
vn -0.487527 -0.718007 -0.496772
vn -0.487527 -0.718007 -0.496772
vn -0.487527 -0.718007 -0.496772
vn -0.663597 -0.615198 0.425641
vn -0.663597 -0.615198 0.425641
vn -0.663597 -0.615198 0.425641
vn -0.663597 -0.615198 0.425641
vn 0.663597 -0.615198 0.425641
vn 0.663597 -0.615198 0.425641
vn 0.663597 -0.615198 0.425641
vn 0.663597 -0.615198 0.425641
vn 0.000000 -0.972459 0.233075
vn 0.000000 -0.972459 0.233075
vn 0.000000 -0.972459 0.233075
vn 0.000000 -0.972459 0.233075
vn 0.000000 -0.943176 -0.332292
vn 0.000000 -0.943177 -0.332292
vn 0.000000 -0.943176 -0.332292
vn 0.000000 -0.943176 -0.332293
vn 0.487527 -0.718007 -0.496772
vn 0.487527 -0.718007 -0.496772
vn 0.487527 -0.718007 -0.496772
vn 0.487527 -0.718007 -0.496772
vn 0.509443 -0.860505 0.000000
vn 0.509443 -0.860505 0.000000
vn 0.509443 -0.860505 0.000000
vn 0.509443 -0.860505 0.000000
vn 0.790617 -0.550630 0.267826
vn 0.790618 -0.550630 0.267826
vn 0.790618 -0.550630 0.267826
vn 0.790617 -0.550630 0.267826
vn -0.790618 -0.550630 0.267826
vn -0.790618 -0.550630 0.267826
vn -0.790618 -0.550630 0.267826
vn -0.790618 -0.550630 0.267826
vn -0.509444 -0.860504 0.000000
vn -0.509444 -0.860504 0.000000
vn -0.509444 -0.860504 0.000000
vn -0.509444 -0.860504 0.000000
vn 0.000000 0.000000 1.000000
vn 0.000000 0.000000 1.000000
vn 0.000000 0.000000 1.000000
vn 0.000000 0.000000 1.000000
vn -1.000000 0.000000 0.000000
vn -1.000000 0.000000 0.000000
vn -1.000000 0.000000 0.000000
vn -1.000000 0.000000 0.000000
vn -1.000000 0.000000 0.000000
vn -1.000000 0.000000 0.000000
vn -1.000000 0.000000 0.000000
vn -1.000000 0.000000 0.000000
vn 1.000000 0.000000 0.000000
vn 1.000000 0.000000 0.000000
vn 1.000000 0.000000 0.000000
vn 1.000000 0.000000 0.000000
vn 0.000000 0.000000 -1.000000
vn 0.000000 0.000000 -1.000000
vn 0.000000 0.000000 -1.000000
vn 0.000000 0.000000 -1.000000
vn 0.000000 0.000000 1.000000
vn 0.000000 0.000000 1.000000
vn 0.000000 0.000000 1.000000
vn 0.000000 0.000000 1.000000
vn 1.000000 0.000000 0.000000
vn 1.000000 0.000000 0.000000
vn 1.000000 0.000000 0.000000
vn 1.000000 0.000000 0.000000
vn -1.000000 0.000000 0.000000
vn -1.000000 0.000000 0.000000
vn -1.000000 0.000000 0.000000
vn -1.000000 0.000000 0.000000
vn 0.000021 0.000000 1.000000
vn 0.000021 0.000000 1.000000
vn 0.000021 0.000000 1.000000
vn 0.000021 0.000000 1.000000
vn -0.000021 0.000000 1.000000
vn -0.000021 0.000000 1.000000
vn -0.000021 0.000000 1.000000
vn -0.000021 0.000000 1.000000
vn 1.000000 0.000000 0.000000
vn 1.000000 0.000000 0.000000
vn 1.000000 0.000000 0.000000
vn 1.000000 0.000000 0.000000
vn 0.721888 0.692010 0.000000
vn 0.721888 0.692010 0.000001
vn 0.721888 0.692010 0.000000
vn 0.000000 0.000000 1.000000
vn 0.721888 0.692010 -0.000001
vn 1.000000 0.000000 0.000000
vn 1.000000 0.000000 0.000000
vn 1.000000 0.000000 0.000000
vn 1.000000 0.000000 0.000000
vn 1.000000 0.000000 0.000000
vn 1.000000 0.000000 0.000000
vn -0.004191 -0.002187 0.999989
vn -0.004191 -0.002187 0.999989
vn -0.004191 -0.002187 0.999989
vn -0.004191 -0.002187 0.999989
vn 0.000000 0.604151 0.796870
vn 0.000000 0.604151 0.796870
vn 0.000000 0.604151 0.796870
vn 0.000000 0.604151 -0.796870
vn 0.000000 0.604151 -0.796870
vn 0.000000 0.604151 -0.796870
vn 0.000752 0.000393 -1.000000
vn 0.000752 0.000393 -1.000000
vn 0.000752 0.000393 -1.000000
vn 0.000752 0.000393 -1.000000
vn 0.000001 -1.000000 -0.000002
vn 0.000001 -1.000000 -0.000002
vn 0.000001 -1.000000 -0.000002
vn 0.000001 -1.000000 -0.000002
vn 0.000001 -1.000000 0.000002
vn 0.000001 -1.000000 0.000002
vn 0.000001 -1.000000 0.000002
vn 0.000001 -1.000000 0.000002
vn 0.998672 -0.003875 0.051377
vn 0.998672 -0.003875 0.051377
vn 0.998672 -0.003875 0.051377
vn 0.998672 -0.003875 0.051377
vn 0.000000 -1.000000 0.000000
vn 0.000000 -1.000000 0.000000
vn 0.000000 -1.000000 0.000000
vn 0.000000 -1.000000 0.000000
vn 0.998573 -0.003741 -0.053264
vn 0.998573 -0.003741 -0.053264
vn 0.998574 -0.003741 -0.053264
vn 0.998574 -0.003741 -0.053264
vn 0.000000 -1.000000 0.000000
vn 0.000000 -1.000000 0.000000
vn 0.000000 -1.000000 0.000000
vn 0.000000 -1.000000 0.000000
vn 0.000000 0.000000 1.000000
vn 0.000000 0.000000 1.000000
vn 0.000000 0.000000 1.000000
vn 0.000000 0.000000 1.000000
vn 0.000000 0.000000 1.000000
vn -0.881051 0.000000 0.473022
vn -0.881051 0.000000 0.473022
vn -0.881051 0.000000 0.473022
vn -0.881051 0.000000 0.473022
vn 0.000000 -1.000000 0.000000
vn 0.000000 -1.000000 0.000000
vn 0.000000 -1.000000 0.000000
vn 0.000000 -1.000000 0.000000
vn 0.881051 -0.000000 0.473022
vn 0.881051 -0.000000 0.473022
vn 0.881051 -0.000000 0.473022
vn 0.881051 -0.000000 0.473022
s 1
g pCube14
usemtl initialShadingGroup
f 1/147/1 12/73/2 58/80/3 52/7/4
s off
f 40/21/5 41/22/6 42/24/7 43/41/8
s 2
f 7/13/9 54/14/10 55/25/11 8/27/12
s 3
f 66/157/13 67/2/14 68/3/15 69/4/16
s 4
f 52/144/17 53/8/18 10/9/19 1/10/20
f 7/13/21 10/9/19 53/8/18 54/14/22
s 5
f 55/25/23 59/134/24 60/133/25 8/27/26
s off
f 44/59/27 43/41/28 42/24/29 45/63/30 46/94/31
s 1
f 76/70/32 77/69/33 58/80/3 12/73/2
s off
f 25/83/34 24/85/35 26/82/36
s 1
f 56/141/37 57/81/38 14/74/39 2/42/40
s off
f 42/24/41 47/95/42 48/96/43 45/63/44
s 4
f 9/91/45 17/12/46 16/11/47 3/146/48
f 18/17/49 17/12/46 9/91/45 5/87/50
s 2
f 18/17/51 5/87/52 6/88/53 19/28/54
s 5
f 11/90/55 20/139/56 19/28/57 6/88/58
f 21/142/59 20/139/56 11/90/55 4/89/60
s 1
f 15/84/61 22/51/62 21/34/63 4/143/64
s off
f 24/85/65 27/49/66 28/54/67 26/82/68
s 1
f 16/145/69 23/48/70 13/150/71 3/92/72
s off
f 42/24/73 41/22/74 49/97/75 50/98/76
f 47/95/77 42/24/78 50/98/79 51/101/80
f 13/86/81 23/149/82 27/49/83 24/85/84
f 23/153/85 22/148/86 28/54/87 27/49/88
f 22/152/89 15/151/90 26/82/91 28/54/92
f 3/16/93 13/120/94 30/123/95 29/23/96
f 9/15/97 3/115/98 29/110/99 31/19/100
f 5/18/101 9/15/102 31/19/103 32/20/104
f 11/32/105 6/113/106 34/106/107 33/37/108
f 6/33/109 5/114/110 32/108/111 34/36/112
f 15/52/113 4/112/114 36/104/115 35/62/116
f 4/35/117 11/32/118 33/37/119 36/43/120
f 13/47/121 24/118/122 37/129/123 30/55/124
f 24/50/125 25/117/126 38/127/127 37/56/128
f 25/75/129 26/116/130 39/125/131 38/76/132
f 26/53/133 15/119/134 35/121/135 39/61/136
f 29/23/137 30/123/138 41/124/139 40/103/140
f 31/19/141 29/110/142 40/111/143 43/102/144
f 32/20/145 31/19/146 43/102/147 44/100/148
f 33/37/149 34/106/150 46/107/151 45/99/152
f 34/36/153 32/108/154 44/109/155 46/40/156
f 35/62/157 36/104/158 48/105/159 47/93/160
f 36/43/161 33/37/162 45/99/163 48/44/164
f 30/55/165 37/129/166 49/130/167 41/58/168
f 37/56/169 38/127/170 50/128/171 49/57/172
f 38/76/173 39/125/174 51/126/175 50/60/176
f 39/61/177 35/121/178 47/122/179 51/64/180
s 4
f 16/11/47 17/12/46 53/8/18 52/144/17
f 54/14/22 53/8/18 17/12/46 18/17/49
s 2
f 55/25/11 54/14/10 18/17/51 19/28/54
s 5
f 19/28/57 20/139/56 59/134/24 55/25/23
s 9
f 20/29/181 63/78/182 64/77/183
s 1
f 21/34/63 22/51/62 57/81/38 56/141/37
f 22/51/62 23/48/70 58/80/3 77/69/33 79/66/184 57/81/38
f 52/7/4 58/80/3 23/48/70 16/145/69
s 9
f 65/79/185 20/29/181 64/77/183
s 3
f 71/5/186 70/6/187 69/4/16 68/3/15
s 5
f 56/38/188 61/39/189 20/139/56 21/142/59
f 2/140/190 62/137/191 61/39/189 56/38/188
s off
f 72/46/192 73/45/193 67/2/194 66/157/195
f 20/29/196 61/138/197 63/78/198
f 59/26/199 20/29/200 65/79/201
f 75/31/202 74/154/203 70/6/204 71/5/205
f 64/77/206 63/78/207 66/160/208 69/158/209
f 65/79/210 64/77/211 69/158/212 70/155/213
f 61/39/214 62/137/215 73/136/216 72/135/217
f 63/78/218 61/138/219 72/156/220 66/1/221
f 60/133/222 59/134/223 74/131/224 75/132/225
f 59/26/226 65/79/227 70/159/228 74/30/229
f 80/68/230 81/67/231 82/72/232 83/71/233
s 1
f 57/81/38 79/66/184 78/65/234 14/74/39
s off
f 78/65/235 79/66/236 81/67/237 80/68/238
f 79/66/239 77/69/240 82/72/241 81/67/242
f 77/69/243 76/70/244 83/71/245 82/72/246
