# This file uses centimeters as units for non-parametric coordinates.

mtllib Route + Trottoir.mtl
g default
v -4.000000 0.150000 4.000000
v 4.000000 0.150000 4.000000
v -4.000000 0.150000 -4.000000
v 4.000000 0.150000 -4.000000
v 6.572360 0.025834 -4.000000
v 6.572360 0.025834 4.000000
v -6.572359 0.025834 4.000000
v -6.572359 0.025834 -4.000000
v 6.572360 0.436407 4.000000
v 6.572360 0.436407 -4.000000
v -6.572359 0.436407 -4.000000
v -6.572359 0.436407 4.000000
v 4.114552 0.436407 4.000000
v 4.000000 0.321856 4.000000
v 4.114552 0.436407 -4.000000
v 4.000000 0.321856 -4.000000
v -4.114552 0.436407 4.000000
v -4.000000 0.321856 4.000000
v -4.114552 0.436407 -4.000000
v -4.000000 0.321856 -4.000000
v 4.485272 0.436407 4.000000
v 4.513910 0.407769 4.000000
v 4.542548 0.436407 4.000000
v 4.485272 0.436407 -4.000000
v 4.542548 0.436407 -4.000000
v 4.513910 0.407769 -4.000000
v -4.485272 0.436407 -4.000000
v -4.513910 0.407769 -4.000000
v -4.542548 0.436407 -4.000000
v -4.485272 0.436407 4.000000
v -4.542548 0.436407 4.000000
v -4.513910 0.407769 4.000000
v 0.000000 0.150000 4.000000
v 0.000000 0.150000 -4.000000
vt 0.691236 0.651203
vt 0.691209 0.467758
vt 0.695150 0.467758
vt 0.695177 0.651203
vt 0.698865 0.467757
vt 0.698892 0.651202
vt 0.613681 0.467755
vt 0.613681 0.651200
vt 0.604266 0.651200
vt 0.604266 0.467755
vt 0.690153 0.467755
vt 0.690181 0.651200
vt 0.686240 0.651201
vt 0.686213 0.467756
vt 0.682498 0.467757
vt 0.682525 0.651202
vt 0.614930 0.651200
vt 0.614930 0.467755
vt 0.624345 0.467755
vt 0.624345 0.651200
vt 0.373834 0.467755
vt 0.465557 0.467755
vt 0.465557 0.651200
vt 0.373834 0.651200
vt 0.557279 0.467755
vt 0.557279 0.651200
vt 0.707366 0.467756
vt 0.707393 0.651201
vt 0.708294 0.467756
vt 0.708322 0.651201
vt 0.709223 0.467755
vt 0.557721 0.651200
vt 0.674024 0.651203
vt 0.673997 0.467758
vt 0.673095 0.651203
vt 0.673068 0.467758
vt 0.672167 0.651203
vt 0.670890 0.467755
vt 0.672140 0.467758
vt 0.670890 0.651200
vt 0.709250 0.651201
vt 0.557721 0.467755
vn 0.000000 1.000000 0.000000
vn 0.000000 1.000000 0.000000
vn 0.000000 1.000000 0.000000
vn 0.000000 1.000000 0.000000
vn 0.000000 1.000000 0.000000
vn 0.000000 1.000000 0.000000
vn 0.000000 1.000000 0.000000
vn 0.000000 1.000000 0.000000
vn -0.000000 1.000000 0.000000
vn -0.000000 1.000000 0.000000
vn -0.000000 1.000000 0.000000
vn -0.000000 1.000000 0.000000
vn 0.000000 1.000000 0.000000
vn 0.000000 1.000000 0.000000
vn 0.000000 1.000000 0.000000
vn 0.000000 1.000000 0.000000
vn 0.000000 1.000000 0.000000
vn 0.000000 1.000000 0.000000
vn 0.000000 1.000000 0.000000
vn 0.000000 1.000000 0.000000
vn -1.000000 0.000000 0.000000
vn -1.000000 0.000000 0.000000
vn -1.000000 0.000000 0.000000
vn -1.000000 0.000000 0.000000
vn 1.000000 0.000000 0.000000
vn 1.000000 0.000000 0.000000
vn 1.000000 0.000000 0.000000
vn 1.000000 0.000000 0.000000
vn 1.000000 0.000000 0.000000
vn 1.000000 0.000000 0.000000
vn 1.000000 0.000000 0.000000
vn 1.000000 0.000000 0.000000
vn -1.000000 0.000000 0.000000
vn -1.000000 0.000000 0.000000
vn -1.000000 0.000000 0.000000
vn -1.000000 0.000000 0.000000
vn -0.707106 0.707108 0.000000
vn -0.707106 0.707108 0.000000
vn -0.707106 0.707108 0.000000
vn -0.707106 0.707108 0.000000
vn 0.707106 0.707108 0.000000
vn 0.707106 0.707108 0.000000
vn 0.707106 0.707108 0.000000
vn 0.707106 0.707108 0.000000
vn 0.707106 0.707108 0.000000
vn 0.707106 0.707108 0.000000
vn 0.707106 0.707108 0.000000
vn 0.707106 0.707108 0.000000
vn -0.707106 0.707108 0.000000
vn -0.707106 0.707108 0.000000
vn -0.707106 0.707108 0.000000
vn -0.707106 0.707108 0.000000
vn -0.707106 0.707108 0.000000
vn -0.707106 0.707108 0.000000
vn -0.707106 0.707108 0.000000
vn -0.707106 0.707108 0.000000
vn 0.707106 0.707108 0.000000
vn 0.707106 0.707108 0.000000
vn 0.707106 0.707108 0.000000
vn 0.707106 0.707108 0.000000
vn 0.000000 1.000000 0.000000
vn 0.000000 1.000000 0.000000
s 1
g pCube10
usemtl initialShadingGroup
f 1/21/1 33/22/2 34/23/3 3/24/4
s off
f 15/6/5 13/5/6 21/27/7 24/28/8
f 17/15/9 19/16/10 27/33/11 30/34/12
f 25/32/13 23/42/14 9/10/15 10/9/16
f 31/38/17 29/40/18 11/20/19 12/19/20
f 4/1/21 2/2/22 14/3/23 16/4/24
f 6/7/25 5/8/26 10/9/27 9/10/28
f 1/11/29 3/12/30 20/13/31 18/14/32
f 8/17/33 7/18/34 12/19/35 11/20/36
f 14/3/37 13/5/38 15/6/39 16/4/40
f 17/15/41 18/14/42 20/13/43 19/16/44
f 21/27/45 22/29/46 26/30/47 24/28/48
f 22/29/49 23/31/50 25/41/51 26/30/52
f 27/33/53 28/35/54 32/36/55 30/34/56
f 28/35/57 29/37/58 31/39/59 32/36/60
s 1
f 34/23/3 33/22/2 2/25/61 4/26/62
